<?xml version="1.0" encoding="UTF-8" standalone="no"?>
<svg
   width="5.4232125"
   height="8.9759998"
   fill="#c5c8c6"
   class="bi bi-question"
   viewBox="0 0 5.4232125 8.9759998"
   version="1.1"
   id="svg4"
   sodipodi:docname="question.svg"
   inkscape:version="1.1.2 (0a00cf5339, 2022-02-04, custom)"
   xmlns:inkscape="http://www.inkscape.org/namespaces/inkscape"
   xmlns:sodipodi="http://sodipodi.sourceforge.net/DTD/sodipodi-0.dtd"
   xmlns="http://www.w3.org/2000/svg"
   xmlns:svg="http://www.w3.org/2000/svg">
  <defs
     id="defs8" />
  <sodipodi:namedview
     id="namedview6"
     pagecolor="#505050"
     bordercolor="#eeeeee"
     borderopacity="1"
     inkscape:pageshadow="0"
     inkscape:pageopacity="0"
     inkscape:pagecheckerboard="0"
     showgrid="false"
     fit-margin-top="0"
     fit-margin-left="0"
     fit-margin-right="0"
     fit-margin-bottom="0"
     inkscape:zoom="54.5625"
     inkscape:cx="2.7399771"
     inkscape:cy="4.4902635"
     inkscape:window-width="3840"
     inkscape:window-height="2100"
     inkscape:window-x="1920"
     inkscape:window-y="0"
     inkscape:window-maximized="1"
     inkscape:current-layer="svg4" />
  <path
     d="M 2.1264868e-4,2.286 A 0.237,0.237 0 0 0 0.24121265,2.533 H 1.0662126 c 0.138,0 0.248,-0.113 0.266,-0.25 0.09,-0.656 0.54,-1.134 1.342,-1.134 0.686,0 1.314,0.343 1.314,1.168 0,0.635 -0.374,0.927 -0.965,1.371 -0.673,0.489 -1.206,1.06 -1.168,1.987 l 0.003,0.217 a 0.25,0.25 0 0 0 0.25,0.246 h 0.811 a 0.25,0.25 0 0 0 0.25,-0.25 V 5.783 c 0,-0.718 0.273,-0.927 1.01,-1.486 0.609,-0.463 1.244,-0.977 1.244,-2.056 0,-1.511 -1.276,-2.241 -2.673,-2.241 -1.267,0 -2.65499995,0.59 -2.74999995132,2.286 z M 1.5572126,8.049 c 0,0.533 0.425,0.927 1.01,0.927 0.609,0 1.028,-0.394 1.028,-0.927 0,-0.552 -0.42,-0.94 -1.029,-0.94 -0.584,0 -1.009,0.388 -1.009,0.94 z"
     id="path2" />
</svg>
